HIERARCHY
ROOT pelvis
{
  OFFSET 0 100 0
  CHANNELS 6 Xposition Yposition Zposition Zrotation Xrotation Yrotation
  JOINT pelvis_right_femur
  {
    OFFSET -10.78128 -3.44521 -0.5502486
    CHANNELS 3 Zrotation Xrotation Yrotation
    JOINT right_femur_tibia
    {
      OFFSET -0.8047443 -44.0398 -0.1307829
      CHANNELS 3 Zrotation Xrotation Yrotation
      JOINT right_tibia_foot
      {
        OFFSET 3.006224 -47.83518 -5
        CHANNELS 3 Zrotation Xrotation Yrotation
        End Site
        {
          OFFSET 0 -5 15
        }
      }
    }
  }
  JOINT pelvis_left_femur
  {
    OFFSET 10.78128 -3.44521 -0.5502486
    CHANNELS 3 Zrotation Xrotation Yrotation
    JOINT left_femur_tibia
    {
      OFFSET 0.8047443 -44.0398 -0.1307829
      CHANNELS 3 Zrotation Xrotation Yrotation
      JOINT left_tibia_foot
      {
        OFFSET -4.370144 -48.10324 -4.275266
        CHANNELS 3 Zrotation Xrotation Yrotation
        End Site
        {
          OFFSET 0 -5 15
        }
      }
    }
  }
  JOINT pelvis_spine1
  {
    OFFSET 0 6.468898 -3.129235
    CHANNELS 3 Zrotation Xrotation Yrotation
    JOINT spine1
    {
      OFFSET 0 23.15396 4.99043
      CHANNELS 3 Zrotation Xrotation Yrotation
      JOINT spine2
      {
        OFFSET 0 20.79997 -5.064912
        CHANNELS 3 Zrotation Xrotation Yrotation
        JOINT neck
        {
          OFFSET 0 14.38658 9.616178
          CHANNELS 3 Zrotation Xrotation Yrotation
          End Site
          {
            OFFSET 0 20 0
          }
        }
      }
      JOINT right_manubrium
      {
        OFFSET -5.722621 16.35077 3.967754
        CHANNELS 3 Zrotation Xrotation Yrotation
        JOINT right_clavicle
        {
          OFFSET -13.16364 1.694482 -4.693211
          CHANNELS 3 Zrotation Xrotation Yrotation
          JOINT right_humerus
          {
            OFFSET -28.5034 -0.3100689 -2.792744
            CHANNELS 3 Zrotation Xrotation Yrotation
            JOINT right_radius
            {
              OFFSET -25.15693 0.02248979 -1.271978
              CHANNELS 3 Zrotation Xrotation Yrotation
              End Site
              {
                OFFSET -15 0 0
              }
            }
          }
        }
      }
      JOINT left_manubrium
      {
        OFFSET 5.722621 16.35077 3.967754
        CHANNELS 3 Zrotation Xrotation Yrotation
        JOINT left_clavicle
        {
          OFFSET 13.16364 1.694482 -4.693211
          CHANNELS 3 Zrotation Xrotation Yrotation
          JOINT left_humerus
          {
            OFFSET 29.39168 -1.063119 -2.237045
            CHANNELS 3 Zrotation Xrotation Yrotation
            JOINT left_radius
            {
              OFFSET 24.59957 -0.9528479 0.9047498
              CHANNELS 3 Zrotation Xrotation Yrotation
              End Site
              {
                OFFSET 15 -0 -0
              }
            }
          }
        }
      }
    }
  }
}
MOTION
Frames: 11
Frame Time: 0.0416666666667
91.05582 92.56045 2738.64 -0.6808591 -6.215783 -6.408134 1.708659 -19.25718 -3.923873 -0 22.80165 -0 -11.81713 -1.86927 -0.6240103 -5.336411 14.41616 -14.64687 -0 9.05659 -0 -0.3315923 -21.3727 17.52416 -6.016843 -3.261362 0.4537347 6.677723 4.073249 -9.607441 0.7485702 22.13841 11.24804 4.107452 -34.84079 15.44096 0.235599 -19.77829 12.50805 88.51322 32.43448 -20.46803 -0 0 12.7886 -5.268457 0.1526997 1.015248 8.247962 -17.77293 3.569361 -86.33472 14.89526 5.730818 0 0 -19.4791 23.31009 10.29008 -21.85302
90.60167 91.35799 2742.744 -0.3825203 -4.862609 -6.252406 1.949616 -21.93217 -3.99324 -0 18.52891 -0 -11.26991 -2.271234 -0.4219927 -5.633468 14.96471 -14.31131 -0 9.35869 -0 1.621761 -21.58131 17.91348 -5.770241 -3.077862 0.5148448 6.592912 4.272288 -9.541466 0.6863789 21.97037 11.29063 4.096192 -34.44033 15.24816 0.3985332 -19.53568 12.56327 88.86279 33.24794 -20.67367 -0 0 11.96216 -5.164142 0.5433068 1.478476 8.074886 -18.29638 3.130244 -85.71243 14.80918 5.444009 0 0 -21.94145 22.87932 9.908046 -20.85628
90.11398 90.11702 2747.032 -0.184194 -3.669369 -6.090877 2.341038 -24.29705 -3.87995 -0 15.22507 -0 -10.85595 -2.122235 -0.2191389 -5.891858 15.42467 -13.89771 -0 10.38708 -0 3.593952 -21.42857 18.34067 -5.518204 -2.901078 0.6301989 6.455972 4.553488 -9.462234 0.6403547 21.83522 11.26163 4.043503 -33.983 15.00843 0.5560031 -19.38175 12.614 89.21023 33.94339 -20.81524 -0 0 11.29536 -5.165636 0.9515325 1.948371 7.865255 -18.77257 2.679481 -85.20793 14.77774 5.409312 0 0 -23.94711 22.40503 9.613146 -19.77475
89.58671 88.92228 2751.568 -0.1180667 -2.707175 -5.905334 2.912092 -26.24374 -3.588908 -0 12.92646 -0 -10.60914 -1.523018 -0.04125062 -6.070604 15.81077 -13.41189 -0 12.23637 -0 5.376924 -20.8844 18.67978 -5.269723 -2.732621 0.783625 6.284299 4.888076 -9.372873 0.6083154 21.72707 11.18079 3.965303 -33.49895 14.74331 0.7102732 -19.29444 12.65994 89.53584 34.53011 -20.90201 -0 0 10.77349 -5.244398 1.365628 2.409196 7.632762 -19.19187 2.2354 -84.81677 14.79808 5.576453 0 0 -25.52884 21.90649 9.385982 -18.65181
89.01288 87.86197 2756.412 -0.2126408 -2.048065 -5.689568 3.678753 -27.62332 -3.137375 -0 11.6521 -0 -10.55849 -0.6039801 0.08828709 -6.124722 16.10901 -12.84889 -0 15.0342 -0 6.750804 -19.90602 18.78917 -5.028172 -2.572109 0.9666711 6.087157 5.260246 -9.273868 0.5878528 21.64193 11.05987 3.870236 -32.99971 14.46215 0.8633481 -19.25818 12.70208 89.83029 35.02385 -20.93899 -0 0 10.37856 -5.384771 1.781461 2.857576 7.384188 -19.55412 1.804635 -84.52981 14.86435 5.912467 0 0 -26.73405 21.39135 9.212634 -17.50668
88.38633 87.02975 2761.614 -0.4868695 -1.754893 -5.459426 4.635639 -28.26702 -2.555048 -0 11.37084 -0 -10.71593 0.4696175 0.143107 -6.006936 16.25741 -12.1912 -0 18.93564 -0 7.517545 -18.43861 18.53434 -4.794397 -2.418587 1.176743 5.867607 5.663462 -9.163619 0.5768933 21.579 10.90407 3.761581 -32.4851 14.16656 1.015052 -19.26432 12.74202 90.09106 35.43825 -20.927 -0 0 10.09577 -5.582952 2.197539 3.296621 7.121059 -19.86221 1.387133 -84.33891 14.97013 6.401085 0 0 -27.60247 20.85958 9.085092 -16.34453
87.70443 86.52197 2767.2 -0.9388063 -1.863773 -5.262873 5.743871 -28.01363 -1.882119 -0 11.94607 -0 -11.05993 1.501939 0.08790452 -5.676966 16.11999 -11.41423 -0 24.09486 -0 7.550816 -16.42891 17.82885 -4.568929 -2.271521 1.415717 5.624138 6.09742 -9.03859 0.5739322 21.54139 10.71329 3.638466 -31.94778 13.8535 1.162191 -19.31122 12.78183 90.31886 35.7813 -20.86133 -0 0 9.917329 -5.844904 2.61161 3.73282 6.840646 -20.11791 0.9796145 -84.23995 15.10873 7.041726 0 0 -28.15534 20.30668 9.00142 -15.16393
86.97084 86.4257 2773.151 -1.528952 -2.362752 -5.182086 6.914187 -26.73277 -1.166341 -0 13.07541 -0 -11.52321 2.28274 -0.1225729 -5.120819 15.4633 -10.50532 -0 30.59055 -0 6.848942 -13.86778 16.68991 -4.353451 -2.131527 1.688849 5.352043 6.565498 -8.893347 0.5780725 21.53596 10.48328 3.496617 -31.37618 13.5175 1.298354 -19.40429 12.82404 90.51446 36.05491 -20.72993 -0 0 9.844677 -6.183693 3.018571 4.174728 6.536715 -20.31961 0.5779271 -84.23366 15.27219 7.847944 0 0 -28.3929 19.72607 8.965614 -13.9618
86.19661 86.79433 2779.384 -2.161476 -3.176735 -5.315483 7.987237 -24.33599 -0.4662115 -0 14.26522 -0 -12.00008 2.614777 -0.5266426 -4.37767 13.95844 -9.495581 -0 38.2779 -0 5.565896 -10.87124 15.28818 -4.151526 -2.000942 2.003567 5.044816 7.072215 -8.720896 0.5889466 21.57229 10.20689 3.329021 -30.75692 13.15241 1.414185 -19.55593 12.87145 90.67596 36.2561 -20.51195 -0 0 9.889485 -6.616089 3.40972 4.632567 6.200606 -20.46155 0.1788553 -84.32477 15.44971 8.844341 0 0 -28.29855 19.11147 8.986878 -12.73708
85.39724 87.61245 2785.74 -2.675824 -4.176089 -5.732265 8.731293 -20.78756 0.1367131 -0 14.9054 -0 -12.38745 2.354308 -1.109972 -3.558753 11.24785 -8.484009 -0 46.57098 -0 3.996378 -7.770485 13.95188 -3.968454 -1.884223 2.367637 4.69605 7.620196 -8.513824 0.6065623 21.66002 9.875611 3.126959 -30.07767 12.75299 1.49822 -19.78453 12.92657 90.79651 36.37891 -20.17807 -0 0 10.07334 -7.158081 3.773758 5.117912 5.823348 -20.53461 -0.2181724 -84.51931 15.62576 10.06071 0 0 -27.84879 18.45933 9.0781 -11.4936
84.58523 88.76451 2792.014 -2.880309 -5.22184 -6.415414 8.909315 -16.15185 0.5402579 -0 14.50417 -0 -12.64299 1.468978 -1.752598 -2.819593 7.11199 -7.610406 -0 54.25509 -0 2.511922 -5.106587 13.08106 -3.81007 -1.788078 2.786314 4.302199 8.206579 -8.266727 0.6311034 21.80444 9.48172 2.88175 -29.33093 12.31657 1.538635 -20.11208 12.99049 90.86284 36.41617 -19.69394 -0 0 10.42562 -7.819174 4.099981 5.642558 5.399312 -20.52873 -0.6092534 -84.82071 15.77904 11.52251 0 0 -27.0273 17.77176 9.253593 -10.24286
